<?xml version="1.0" encoding="UTF-8"?>
<svg id="Calque_1" xmlns="http://www.w3.org/2000/svg" version="1.1" viewBox="0 0 1024 1024">
  <!-- Generator: Adobe Illustrator 29.5.1, SVG Export Plug-In . SVG Version: 2.1.0 Build 141)  -->
  <defs>
    <style>
      .st0 {
        font-family: NewstarRegular, Newstar;
        font-size: 153.14px;
      }

      .st1 {
        fill: #fff;
      }
    </style>
  </defs>
  <g>
    <path d="M594,176.42l-7,62.49c-1.75,8.8,3.21,15.24,4.75,23.25,1.05,5.46.43,13.11,1.93,18.07,1.37,4.55,6.39,10.96,8.51,15.49,1.36,2.91,5.59,12.72,5.79,15.3.62,8.02-9.72,13.7-10.02,16.92l15.06,42.96c.91,9.94-3.06,8.4-7.46,13.57-3.21,3.78,2.66,10.3,3.96,14.93.97,3.5,1.67,8.81,1.38,12.4-.38,4.75-4.14,12.52-3.87,16,.68,8.81,15.88,32.43,19.73,43.36,11.52,32.71.65,59.56-22.74,82.77-12.57,12.48-29.39,27.58-43,39-2.88,2.41-6.19,5.79-10.08,4.05-12.62-8.67-24.94-17.8-37.62-26.38-35.33-23.9-73.62-42.12-88.79-85.21-2.14-6.09-3.05-15.67-5.3-20.7-.5-1.11-2.06-3.17-3.23-2.26-.94.73-3.51,15.42-4.29,18.22-2.64,9.46-6.38,18.94-11.9,27.1-1.74,2.57-11.97,13.18-11.77,14.08.39,1.83,26.6,14.57,30.88,17.19,16.72,10.22,37.32,27,50.6,41.4,1.61,1.75,6.6,7.03,7.53,8.47.58.9,1.58,2.89.95,3.54-1.65,1.7-33.98-12.02-38.38-14.12-29.39-13.99-53.74-35.16-87.23-39.77-22.89-3.15-51.08,2.93-70.71,15.07-2.35,1.45-11.38,7.64-12.74,9.26-.75.89-1.47,3.04-.93,3.56.88.86,20.74-.26,24.5,0,55.56,3.96,89.34,43.46,134.2,68.8,4.93,2.78,26.45,14.16,30.64,13.92,1.35-.08,3.05-.93,4.18-1.71,17.29-16.06,34.41-32.32,52.19-47.85,3.36-1.02,6.08,1.23,8.62,3.01,6.41,4.48,17.71,16.35,23.93,19.07,1.9.83,3.82,1.29,5.74.26l103.71-97.33,4.3.34,30.02,26.01c1.72.98,3.66.35,5.3-.47l57.17-63.09c2.28-5.74-9.58-10.86-13.43-14.51-.98-.93-1.64-1.02-.58-2.48.71-.98,10.68-5.21,12.85-6.15,15.28-6.67,31.89-13.48,47.41-19.59,2-.79,13.05-5.27,13.78-5.2.36.03,1.8,1.55,1.44,2.37-3.02,8.85-16.53,75.04-19.91,77.16-1.19.74-1.87.58-3.04-.03-3.66-1.9-9.47-11.12-14.54-12.58l-2.45.55-78.71,83.37-3.29-.35-33.01-29.04-2.3-.36-106.37,98.79c-.55.34-1.16.78-1.82.78-2.39,0-24.35-20.5-27.94-23.72-3.7-2.81-7.26.8-10.04,3.07-11.91,9.75-23.01,22.19-34.5,32.5-2.44,2.19-8.9,8.06-11.58,8.45-4.52.64-19.18-3.92-24.44-5.46-10.18-2.99-21.15-7.01-30.99-11.01-63.2-25.71-103.1-67.86-178.25-54.23-4.9.89-32.5,9.95-33.75,8.74-.66-.64,1.76-6.89,2.24-8.25,12.11-34.29,34.35-65.26,65.42-84.58,3.06-1.9,19.77-9.86,20.4-10.83,2.11-3.21-.57-8.35-.96-11.95-2.32-21.46,0-40.52,14.37-57.41,14.1-16.57,33.39-20.97,31.56-47.52-.26-3.76-1.72-7.35-2.03-10.96-2.32-26.58,8.28-48.84,27.98-66.01,3.47-3.03,12.6-8.34,14.45-11.55,2.06-3.57,2-8.86,3.26-12.74,2.18-6.69,5.83-15.55,9.47-21.53,2.25-3.7,10.92-12.78,11.63-15.41.32-1.2.41-2.33,0-3.52-7.27-20.52-13.57-41.37-19.81-62.22.73-.72.73-1.39,2.04-1.08,1.13.27,4.58,2.3,5.99,3.04,5.83,3.07,41.83,25.85,44.34,25.39,2.12-.39,2.77-3.98,3.18-5.82,2.85-12.71,3.02-27.31,5.76-40.25.41-1.91-.02-4.94,2.21-4.85,2.87.12,12.66,7.95,15.8,10.22,7.46,5.4,14.93,11.04,21.69,17.33,3.22,1.66,5.16-.71,6.83-3.18,11.96-17.74,21.95-40.35,32.99-59.01.82-1.38,4.74-8.29,5.68-8.31l35.49,74.51c.76.47,1.6.62,2.48.53,2.49-.27,23.03-18.87,27.06-22.04,1.25-.98,6.28-5.24,7.48-4.02ZM528.84,193.6c-.54-.34-2.74-.3-2.82-.18-1.16,1.76-1.64,23.94-.86,26.35,1.22,3.79,15.16,4.12,14.69-.66-2.68-3.84-8.34-23.84-11.01-25.5ZM412,278.41c2.49,2.23,18.7-6.7,22.32-8.18,37.46-15.34,76.22-24.28,116.88-17.52,4.2.7,16.33,4.44,19.16,3.57,1.07-.33,1.57-.99,1.5-2.17-.31-4.95-5.16-11.38-9.87-13.19-16.15-6.19-51.05-5.73-68.36-3.39-25.63,3.46-62.31,17.7-79.62,37.38-.55.63-2.99,2.6-2,3.5ZM568.23,372.19c1.64,1.63,20.12,1.76,23.25,1.22,4.71-.81,4.81-5.23,4.06-9.04-2.75-13.95-11.67-29.29-14.5-43.58-1.14-6.98,9.65-9.59,8.96-15.78-.28-2.5-9.19-18.16-11.16-20.93-1.21-1.7-3.22-3.9-4.9-5.1-12.82-9.14-50.93-11.27-66.18-8.3-1.71.33-3.88.73-5.3,1.7-2.23,1.51-8.4,16.47-10.64,20.36-5.12,8.85-13.33,17.51-18.01,25.99-3.08,5.58-1.68,10.61-.08,16.48,4.83,17.75,21.74,28.65,33.52,41.48,2.49,6.21,1.31,12.8,1.76,19.24.12,1.7.89,3.3,1,5,.16,2.41-1.49,16.92,3.53,12.53,2.99-2.62,6.21-10.51,9.5-14.5,5.48-6.67,12.85-12.39,20.3-16.7,3.04-1.75,7.09-2.63,9.64-4.36,1.83-1.25,11.09-16.55,14.03-13.46.28.29-.59,5.94,1.24,7.77ZM369,363.41c3,3.06,7.21-7.88,8.17-9.33,20.93-31.61,53.6-24.43,74.83-47.17,3.21-3.44,5.15-7.85-1.37-7.44-8.99.58-26.96,5.28-35.86,8.21-20.2,6.66-42.99,22.49-45.68,45.32-.18,1.56-.46,10.03-.09,10.4ZM472,476.41c.92-.94-2.77-17.44-3-20.5-1.5-20.71,4.06-32.62,5.89-51.11,1.7-17.12-6.34-22.42-12.75-36.03-1.5-3.18-6.34-19.32-8.64-19.34-3.5-.03-2.64,20.06-2.54,23.53.07,2.37,1.05,4.54,1.09,6.91.5,26.7-6.03,57.12,6.44,81.56,1.12,2.19,10.51,18.03,13.51,14.98ZM425.7,351.61c-5.86.32-15.74,8.25-16.65,14.37-2.35,15.9,18.76,28.77,20.88,10.86.93-7.87-4.42-7.01-4.96-10.96s7.49-14.63.73-14.27ZM570.5,406.42c6.06-.84,15.47,0,22,0,4.21,0-.92-10.82-4.13-12.87-9.41-6.02-31.19-.34-40.29,5.45-15.42,9.82-23.2,24.62-24.09,42.92-.17,3.47-.37,11.33,4.51,7.51,2.26-15.63,12.75-31.02,27.12-37.88,2.87-1.37,12.04-4.73,14.88-5.12ZM383,413.42c-2.12-2.17-5.45,3.93-6.48,5.02-4.13,4.34-9.06,9.6-13.5,13.5-16.27,14.3-39.25,23.16-41.91,48.09-.29,2.72-.44,8.48,2.94,4.74,1.91-2.11,3.67-6.9,5.51-9.29,12.45-16.23,38.73-22.14,48.83-42.17,1.52-3,6.56-17.88,4.6-19.89ZM572.76,422.68c-12.01,1.75-15.82,11-.14,12.63,5.34.56,12.33,1.87,13.32-4.44,1.52-9.68-5.43-9.31-13.18-8.19ZM591.51,466.42c-1.49.41-1.23,1.8-1.1,3,.76,6.93,4.74,14.71,6.13,21.95,1.63,8.5,1.79,16.91,1.5,25.59-.06,1.92-2.94,11.39,1.44,10.45,2.29-.49,7.05-12.5,7.8-15.21,4.63-16.78-1.43-31.54-12.43-44.13-1-1.14-1.38-2.19-3.34-1.64Z"/>
    <path d="M754,423.92c-.29-1.08-3.5-3.41-3.96-6.04-1.04-5.81,1.61-19.94-.98-24.02-1.9-3.01-12.92-3.75-17.08-4.92-15.62-4.4-29.93-12.45-38.15-26.85-14.93-26.13-3.26-54.38-1.83-82.17.99-19.23-.67-37.82-4.99-56.5,8.56,7.26,15.56,16.39,21.81,25.68,3.87,5.75,12.74,19.48,13,26.05.17,4.31-6.15-.28-8.89,1.7-2.56,1.85-.76,10.02-.92,13.06-1.66,30.92-14.5,60.1,24.77,71.22,5.62,1.59,15.32,5.36,16.27-3.16.68-6.08-.33-13.73-.1-20.1.94-25.31,1.34-50.63,2-76,.2-7.89,2.01-16.79,1.09-25-.99-8.9-8.99-1.12-13.55-.43-2.11.32-1.62-.78-1.45-2.45,8.45-20.32,14.93-44.41,25.47-63.59.44-.79.22-2.78,1.96-1.97,3.29,1.52,22.99,59.8,26.51,67.51.2,1.53.08,1.73-1.5,1.5-2.65-.39-9.96-5.22-11.85-4.87-4.27.79-3.83,8.05-3.64,11.36,1.85,32.56,2.51,65.44,4,97.99.2,4.39-1.55,19.97,2.65,21.35,6.88,2.26,24.69-5.62,30.36-10.33,16.19-13.43,8.83-40.25,7.94-58.97-.18-3.87,1.04-16.04-.94-18.07-3.12-3.2-9.72,4.31-8.96-1.91,1.33-10.91,19.34-37.3,26.97-46.04,1.36-1.56,5.63-6.41,4.74-1.27-3.47,19.89-4.63,43.19-2.76,63.25,1.9,20.44,10,40.94,3.28,61.28-6.04,18.32-22.8,31.62-40.84,37.16-4.33,1.33-15.37,2.39-18,4-5.17,3.18-2.57,5.57-2.44,9.56.15,4.23.64,12.23-.02,15.99-.42,2.4-3.18,3.51-3.78,6.22-1.5,6.66,3.05,13.74-4.65,17.35-6.04,2.83-15.03,4.78-21.55,6.95-1.14-6.56,1.54-18.72,0-24.5Z"/>
    <path d="M777,526.42v153.5c0,1.24-3.1,2.4-4.45,2.55-9.4,1.07-33.63,1.01-43.1,0-3.52-.38-4.69-1.96-4.51-5.49l.5-98.61c15.49-17.48,31.99-34,48.55-50.45l3.01-1.5Z"/>
    <path d="M711,595.42v84.5c0,.78-3.18,2.98-4.45,2.55-18.51-1.58-39.97,1.93-58.1,0-3.99-.43-4.24-1.92-4.51-5.49-1.96-26.14,1.61-54.7,0-81.1-.11-4.78,8.84-14.04,12.5-16.51.94-.63,1.58-1.32,2.86-.85l33.23,30.96c3.9.37,12.17-9.83,15.45-12.56,1.01-.84,1.29-1.9,3.01-1.5Z"/>
    <path d="M629,606.42v73.5c0,.18-2.32,2.5-2.5,2.5h-51c-.14,0-1.78-1.56-1.99-2.01-.94-2.02-.87-17.36-.53-20.52.52-4.91,7.35-10.49,11.01-13.99,12.76-12.25,28.49-26.72,42.01-37.99,1.01-.84,1.29-1.9,3-1.5Z"/>
    <path d="M490.5,682.42c-.74-.21-2.27-2.11-1.02-3.01l24.96-24.04c.84-.81,1.86-1.12,3.01-1.01,1.91.19,26.18,21.4,29.56,24.54,1.07,1,3.05,3.52.48,3.52h-57Z"/>
    <path class="st1" d="M591.51,466.42c1.96-.54,2.34.5,3.34,1.64,11.01,12.59,17.06,27.36,12.43,44.13-.75,2.72-5.5,14.72-7.8,15.21-4.38.94-1.51-8.53-1.44-10.45.28-8.68.13-17.08-1.5-25.59-1.39-7.25-5.37-15.02-6.13-21.95-.13-1.2-.39-2.59,1.1-3Z"/>
    <path d="M546,347.41c-1.45-1.48,6.39-10.83,1-13.5-3.8-.28-32.96-1.15-32.98-5,0-1.36,16.45-8.18,18.98-9.52.19-3.48-4.76-3.8-7.45-4.03-9.49-.78-19.27.99-28.54.55,12.91-16.23,29.86-17.52,49.21-14.22,4.58.78,23.28,5.07,24.59,9.4,2.01,6.62-5.03,20.11-9.3,25.33-1.68,2.06-13.67,12.87-15.51,10.98Z"/>
  </g>
  <text class="st0" transform="translate(196.89 844.28)"><tspan x="0" y="0">POSEIDON</tspan></text>
</svg>